<?xml version="1.0" standalone="no"?>
<!DOCTYPE svg PUBLIC "-//W3C//DTD SVG 20010904//EN"
 "http://www.w3.org/TR/2001/REC-SVG-20010904/DTD/svg10.dtd">
<svg version="1.0" xmlns="http://www.w3.org/2000/svg"
 width="500.000000pt" height="500.000000pt" viewBox="0 0 500.000000 500.000000"
 preserveAspectRatio="xMidYMid meet">

<g transform="translate(0.000000,500.000000) scale(0.100000,-0.100000)"
fill="#000000" stroke="none">
<path d="M1881 3149 c-331 -330 -601 -605 -599 -611 2 -6 11 -16 19 -21 11 -7
33 10 91 67 42 42 80 76 86 76 5 0 15 -7 22 -15 10 -12 -1 -28 -69 -96 -78
-78 -81 -82 -65 -100 9 -11 20 -19 24 -19 4 0 41 34 83 75 42 41 81 75 86 75
5 0 14 -7 21 -15 11 -14 1 -28 -68 -97 -78 -77 -81 -82 -66 -100 10 -10 20
-18 25 -18 4 0 40 34 80 75 40 41 78 75 84 75 7 0 18 -7 25 -16 12 -13 2 -27
-69 -98 -79 -79 -81 -83 -63 -99 10 -9 22 -17 26 -17 4 0 43 37 86 82 68 72
80 81 94 69 9 -7 16 -19 16 -25 0 -6 -36 -47 -80 -91 -74 -74 -78 -81 -63 -97
9 -10 20 -18 24 -18 5 0 44 37 87 82 70 72 82 81 96 69 9 -7 16 -18 16 -25 0
-6 -36 -47 -80 -91 l-81 -81 24 -22 23 -22 83 86 c67 69 85 83 97 73 8 -6 14
-16 14 -23 0 -6 -36 -47 -80 -91 l-81 -81 24 -22 23 -21 84 84 c46 47 87 85
91 85 3 0 12 -7 19 -16 12 -13 1 -27 -73 -102 l-87 -87 22 -23 23 -22 87 87
c83 83 89 87 105 70 17 -16 13 -22 -70 -105 l-87 -87 22 -23 23 -22 87 87 c83
83 89 87 105 70 17 -16 13 -22 -70 -105 l-88 -88 24 -22 23 -22 84 85 c86 86
106 98 117 69 4 -11 -21 -43 -81 -103 l-87 -87 24 -22 23 -22 64 65 c36 36 68
65 72 65 4 0 8 -12 8 -27 0 -20 -15 -43 -55 -83 l-55 -56 45 -44 45 -44 0
-168 0 -168 45 0 c33 0 47 5 52 16 8 20 -14 992 -27 1194 -5 80 -14 206 -20
280 l-12 135 51 84 c58 96 86 165 96 238 l7 52 -51 -6 -51 -6 0 37 c0 21 -5
46 -11 57 -7 15 -6 31 5 62 8 23 17 54 20 70 8 36 42 36 121 -1 87 -42 92 -51
70 -120 -35 -110 -17 -201 59 -291 46 -55 45 -69 -18 -196 -31 -63 -66 -113
-115 -167 -39 -42 -71 -79 -71 -82 0 -3 21 -20 48 -37 197 -135 301 -306 363
-600 19 -89 23 -148 28 -409 l6 -305 45 0 45 0 3 245 2 245 37 37 37 38 -77
78 c-73 74 -76 78 -60 95 17 16 21 13 94 -59 69 -68 79 -75 98 -65 11 7 21 17
21 24 0 6 -34 46 -75 87 -73 73 -75 77 -57 93 17 16 22 13 92 -58 41 -41 80
-75 86 -75 6 0 18 8 27 18 16 17 12 22 -58 92 -76 76 -87 96 -59 107 11 4 39
-17 89 -67 51 -50 78 -71 89 -67 38 15 29 38 -45 113 -69 70 -72 75 -56 91 16
16 21 13 91 -56 52 -51 79 -72 90 -68 38 15 29 38 -45 113 -69 70 -72 75 -56
91 16 16 21 13 95 -60 l77 -77 23 22 22 23 -77 77 c-73 74 -76 79 -60 95 16
16 21 13 95 -60 l78 -78 22 24 22 23 -75 74 c-71 70 -74 75 -58 92 16 18 20
15 94 -58 l77 -77 23 22 23 21 -77 78 c-73 74 -76 78 -60 95 17 16 22 13 95
-60 l78 -77 22 22 22 22 -73 74 c-51 51 -72 79 -68 90 11 28 30 18 104 -56 62
-61 74 -70 87 -58 9 7 16 18 16 24 0 10 -759 770 -1110 1113 l-126 123 -603
-601z m854 -239 c28 -22 83 -54 121 -72 62 -29 78 -32 159 -32 81 1 101 5 199
42 103 39 111 41 128 25 10 -9 18 -22 18 -29 0 -20 -39 -42 -87 -50 -24 -4
-43 -12 -43 -18 0 -28 -64 -141 -105 -185 -84 -90 -237 -133 -320 -89 -94 50
-145 171 -145 344 0 69 6 104 18 104 3 0 28 -18 57 -40z m-1071 -79 c75 -79
242 -109 424 -77 111 19 112 19 112 4 0 -24 -61 -133 -93 -166 -48 -51 -84
-66 -157 -66 -101 -1 -179 55 -226 160 -18 42 -30 54 -57 63 -19 7 -44 22 -56
35 -22 23 -22 25 -6 50 22 33 25 32 59 -3z"/>
</g>
</svg>
